<?xml version="1.0" standalone="no"?><!DOCTYPE svg PUBLIC "-//W3C//DTD SVG 1.1//EN" "http://www.w3.org/Graphics/SVG/1.1/DTD/svg11.dtd"><svg class="icon" width="200px" height="200.00px" viewBox="0 0 1024 1024" version="1.1" xmlns="http://www.w3.org/2000/svg"><path fill="#333333" d="M512 440.32c-38.912 0-71.68 32.768-71.68 71.68 0 38.912 32.768 71.68 71.68 71.68 38.912 0 71.68-32.768 71.68-71.68C583.68 473.088 550.912 440.32 512 440.32zM512 559.104c-26.624 0-47.104-20.48-47.104-47.104 0-26.624 20.48-47.104 47.104-47.104 26.624 0 47.104 20.48 47.104 47.104C559.104 538.624 538.624 559.104 512 559.104zM512 102.4C286.72 102.4 102.4 286.72 102.4 512s184.32 409.6 409.6 409.6 409.6-184.32 409.6-409.6S737.28 102.4 512 102.4zM729.088 528.384c0 16.384-12.288 28.672-28.672 28.672l-18.432 0c-4.096 0-8.192 4.096-8.192 6.144l0 0-12.288 26.624c-2.048 2.048 0 8.192 2.048 10.24L675.84 614.4c6.144 6.144 8.192 12.288 8.192 20.48 0 8.192-2.048 14.336-8.192 20.48L655.36 675.84c-10.24 10.24-28.672 10.24-38.912 0l-14.336-14.336c-2.048-2.048-8.192-4.096-10.24-2.048l-2.048 0-26.624 10.24c-4.096 0-6.144 6.144-6.144 8.192l0 18.432c0 16.384-12.288 28.672-28.672 28.672l-30.72 0c-16.384 0-28.672-12.288-28.672-28.672l0-18.432c0-4.096-4.096-8.192-6.144-8.192l0 0-26.624-12.288c-2.048-2.048-8.192 0-10.24 2.048L409.6 675.84c-6.144 6.144-12.288 8.192-20.48 8.192-8.192 0-14.336-2.048-20.48-8.192L348.16 655.36c-10.24-10.24-10.24-28.672 0-38.912l14.336-14.336c2.048-2.048 4.096-8.192 2.048-10.24l0-2.048-12.288-26.624c0-4.096-6.144-6.144-8.192-6.144l-18.432 0c-16.384 0-28.672-12.288-28.672-28.672l0-30.72c0-16.384 12.288-28.672 28.672-28.672l18.432 0c4.096 0 8.192-4.096 8.192-6.144l0-2.048 12.288-26.624c2.048-2.048 0-8.192-2.048-10.24L348.16 409.6c-6.144-6.144-8.192-12.288-8.192-20.48 0-8.192 2.048-14.336 8.192-20.48L368.64 348.16c10.24-10.24 28.672-10.24 38.912 0l14.336 14.336c2.048 2.048 8.192 4.096 10.24 2.048l2.048 0 26.624-10.24c4.096 0 6.144-6.144 6.144-8.192l0-18.432c0-16.384 12.288-28.672 28.672-28.672l30.72 0c16.384 0 28.672 12.288 28.672 28.672l0 18.432c0 4.096 4.096 8.192 6.144 8.192l2.048 0 26.624 12.288c2.048 2.048 8.192 0 10.24-2.048L614.4 348.16c10.24-10.24 28.672-10.24 38.912 0L675.84 368.64c6.144 6.144 8.192 12.288 8.192 20.48s-2.048 14.336-8.192 20.48l-14.336 14.336c-2.048 2.048-4.096 8.192-2.048 10.24l0 2.048 10.24 26.624c0 4.096 6.144 6.144 8.192 6.144l18.432 0c16.384 0 28.672 12.288 28.672 28.672L724.992 528.384z" /></svg>