<?xml version="1.0" standalone="no"?><!DOCTYPE svg PUBLIC "-//W3C//DTD SVG 1.1//EN" "http://www.w3.org/Graphics/SVG/1.1/DTD/svg11.dtd"><svg class="icon" width="200px" height="200.00px" viewBox="0 0 1024 1024" version="1.1" xmlns="http://www.w3.org/2000/svg"><path fill="#333333" d="M843.237565 142.815683 180.760388 142.815683c-69.600171 0-125.929084 56.428174-125.929084 125.930107l0 486.510466c0 69.601194 56.42715 125.929084 125.929084 125.929084l662.477176 0c69.600171 0 125.930107-56.42715 125.930107-125.929084l0-486.510466C969.167672 199.242833 912.837736 142.815683 843.237565 142.815683zM312.784284 304.233026c35.388998 0 64.095807 28.704762 64.095807 64.094784s-28.705785 64.094784-64.095807 64.094784c-35.388998 0-64.094784-28.704762-64.094784-64.094784S277.395286 304.233026 312.784284 304.233026zM905.662313 649.087215c-8.257058 6.389524-20.151969 4.718465-26.444279-3.539616L737.953683 458.964086c-0.393973-0.589424-39.813774-51.118238-87.687108-46.300512-38.930661 4.422729-77.17059 45.908586-110.593817 120.029724-35.390022 78.742389-70.092381 119.833249-109.119233 129.4687-44.236504 10.716063-82.379219-19.267832-122.782418-51.217499l-5.111414-4.02978c-47.284933-37.062104-69.894883-28.607548-160.925133 60.556191-3.638877 3.637854-8.454556 5.40715-13.173021 5.40715-4.915963 0-9.830903-1.867534-13.467733-5.701862-7.274684-7.472182-7.17747-19.464307 0.294712-26.740014 82.673931-81.002872 133.202745-123.961266 210.568786-63.208601l5.209652 4.028757c34.504862 27.231201 64.292282 50.725288 90.440825 44.237527 26.050306-6.390547 54.165644-42.761919 83.657328-108.234073 39.813774-88.375793 87.195921-136.25015 141.066853-142.148487 69.305459-7.373944 119.736035 58.294684 121.79902 61.145615L909.200906 622.642936C915.492192 630.997208 913.919371 642.795928 905.662313 649.087215z" /></svg>