<?xml version="1.0" standalone="no"?><!DOCTYPE svg PUBLIC "-//W3C//DTD SVG 1.1//EN" "http://www.w3.org/Graphics/SVG/1.1/DTD/svg11.dtd"><svg class="icon" width="200px" height="200.00px" viewBox="0 0 1024 1024" version="1.1" xmlns="http://www.w3.org/2000/svg"><path fill="#333333" d="M514.314 15.737c-275.404 0-500.688 226.238-500.688 502.75 0 276.561 225.282 502.75 500.688 502.75 45.852 0 83.406-37.654 83.406-83.758 0-21.014-8.294-41.929-20.862-54.499-12.468-16.741-20.862-33.534-20.862-54.548 0-46.001 37.607-83.758 83.455-83.758h100.198c154.294 0 279.478-125.686 279.478-280.634-4.172-247.203-229.456-448.302-504.811-448.302v0zM209.746 518.485c-45.902 0-83.406-37.654-83.406-83.808 0-46.101 37.505-83.808 83.406-83.808s83.455 37.706 83.455 83.808c-0.050 46.151-37.556 83.808-83.455 83.808v0zM376.61 296.471c-45.852 0-83.455-37.756-83.455-83.86 0-46.051 37.607-83.808 83.455-83.808 45.902 0 83.455 37.706 83.455 83.808 0 46.101-37.556 83.86-83.455 83.86v0zM651.964 296.471c-45.951 0-83.455-37.756-83.455-83.86 0-46.051 37.505-83.808 83.455-83.808 45.902 0 83.406 37.706 83.406 83.808 0 46.101-37.505 83.86-83.406 83.86v0zM818.878 518.485c-45.902 0-83.455-37.654-83.455-83.808 0-46.101 37.556-83.808 83.455-83.808 45.951 0 83.455 37.706 83.455 83.808 0 46.151-37.505 83.808-83.455 83.808v0zM818.878 518.485z" /></svg>